<svg width="244" height="49" viewBox="0 0 274 89" fill="none" xmlns="http://www.w3.org/2000/svg">
<path d="M113.91 60.635V63H100.6V47.875H85.31V63H72V60.635H76.73V24.555H85.31V40.615H100.6V24.555H109.18V60.635H113.91ZM118.625 60.635V24.555H133.2C139.176 24.555 143.43 25.5633 145.96 27.58C148.526 29.5967 149.81 32.8417 149.81 37.315C149.81 43.475 147.371 47.4533 142.495 49.25L150.525 60.635H155.695V63H141.67L133.145 50.735H127.205V63H113.29V60.635H118.625ZM133.475 43.31C136.408 43.31 138.406 42.8333 139.47 41.88C140.533 40.9267 141.065 39.4233 141.065 37.37C141.065 35.28 140.515 33.85 139.415 33.08C138.315 32.31 136.39 31.925 133.64 31.925H127.205V43.31H133.475ZM171.895 60.635V63H153.855V60.635H158.585V24.555H167.165V60.635H171.895ZM206.992 60.635V63H171.902V60.635H179.382C177.366 59.6083 175.532 58.2883 173.882 56.675L178.997 50.405C183.141 54.035 186.972 55.85 190.492 55.85C192.069 55.85 193.297 55.52 194.177 54.86C195.094 54.1633 195.552 53.2467 195.552 52.11C195.552 50.9367 195.076 50.02 194.122 49.36C193.169 48.6633 191.281 47.9667 188.457 47.27C183.984 46.2067 180.702 44.8317 178.612 43.145C176.559 41.4217 175.532 38.745 175.532 35.115C175.532 31.4483 176.834 28.625 179.437 26.645C182.077 24.665 185.359 23.675 189.282 23.675C191.849 23.675 194.416 24.115 196.982 24.995C199.549 25.875 201.786 27.1217 203.692 28.735L199.347 35.005C196.011 32.475 192.564 31.21 189.007 31.21C187.577 31.21 186.441 31.5583 185.597 32.255C184.791 32.915 184.387 33.8133 184.387 34.95C184.387 36.05 184.882 36.93 185.872 37.59C186.899 38.25 189.227 39.0383 192.857 39.955C196.524 40.835 199.366 42.1733 201.382 43.97C203.399 45.7667 204.407 48.26 204.407 51.45C204.407 55.41 202.922 58.4717 199.952 60.635H206.992Z" fill="white"/>
<path d="M8.30483 74.6H10.2488V83H8.30483V74.6ZM4.48883 83H2.54483V74.6H4.48883V83ZM8.44883 79.556H4.34483V77.912H8.44883V79.556ZM15.9682 83.144C14.7762 83.144 13.8442 82.812 13.1722 82.148C12.5002 81.484 12.1642 80.536 12.1642 79.304V74.6H14.1082V79.232C14.1082 80.032 14.2722 80.608 14.6002 80.96C14.9282 81.312 15.3882 81.488 15.9802 81.488C16.5722 81.488 17.0322 81.312 17.3602 80.96C17.6882 80.608 17.8522 80.032 17.8522 79.232V74.6H19.7722V79.304C19.7722 80.536 19.4362 81.484 18.7642 82.148C18.0922 82.812 17.1602 83.144 15.9682 83.144ZM21.6933 83V74.6H23.3013L26.8773 80.528H26.0253L29.5413 74.6H31.1373L31.1613 83H29.3373L29.3253 77.396H29.6613L26.8533 82.112H25.9773L23.1093 77.396H23.5173V83H21.6933ZM32.0502 83L35.7942 74.6H37.7142L41.4702 83H39.4302L36.3582 75.584H37.1262L34.0422 83H32.0502ZM33.9222 81.2L34.4382 79.724H38.7582L39.2862 81.2H33.9222ZM42.3417 83V74.6H43.9497L48.9057 80.648H48.1257V74.6H50.0457V83H48.4497L43.4817 76.952H44.2617V83H42.3417ZM55.4315 83V74.6H59.0675C59.8195 74.6 60.4675 74.724 61.0115 74.972C61.5555 75.212 61.9755 75.56 62.2715 76.016C62.5675 76.472 62.7155 77.016 62.7155 77.648C62.7155 78.272 62.5675 78.812 62.2715 79.268C61.9755 79.716 61.5555 80.06 61.0115 80.3C60.4675 80.54 59.8195 80.66 59.0675 80.66H56.5115L57.3755 79.808V83H55.4315ZM60.7715 83L58.6715 79.952H60.7475L62.8715 83H60.7715ZM57.3755 80.024L56.5115 79.112H58.9595C59.5595 79.112 60.0075 78.984 60.3035 78.728C60.5995 78.464 60.7475 78.104 60.7475 77.648C60.7475 77.184 60.5995 76.824 60.3035 76.568C60.0075 76.312 59.5595 76.184 58.9595 76.184H56.5115L57.3755 75.26V80.024ZM66.0438 77.984H70.0878V79.496H66.0438V77.984ZM66.1878 81.44H70.7598V83H64.2558V74.6H70.6038V76.16H66.1878V81.44ZM75.0665 83.144C74.3945 83.144 73.7505 83.056 73.1345 82.88C72.5185 82.696 72.0225 82.46 71.6465 82.172L72.3065 80.708C72.6665 80.964 73.0905 81.176 73.5785 81.344C74.0745 81.504 74.5745 81.584 75.0785 81.584C75.4625 81.584 75.7705 81.548 76.0025 81.476C76.2425 81.396 76.4185 81.288 76.5305 81.152C76.6425 81.016 76.6985 80.86 76.6985 80.684C76.6985 80.46 76.6105 80.284 76.4345 80.156C76.2585 80.02 76.0265 79.912 75.7385 79.832C75.4505 79.744 75.1305 79.664 74.7785 79.592C74.4345 79.512 74.0865 79.416 73.7345 79.304C73.3905 79.192 73.0745 79.048 72.7865 78.872C72.4985 78.696 72.2625 78.464 72.0785 78.176C71.9025 77.888 71.8145 77.52 71.8145 77.072C71.8145 76.592 71.9425 76.156 72.1985 75.764C72.4625 75.364 72.8545 75.048 73.3745 74.816C73.9025 74.576 74.5625 74.456 75.3545 74.456C75.8825 74.456 76.4025 74.52 76.9145 74.648C77.4265 74.768 77.8785 74.952 78.2705 75.2L77.6705 76.676C77.2785 76.452 76.8865 76.288 76.4945 76.184C76.1025 76.072 75.7185 76.016 75.3425 76.016C74.9665 76.016 74.6585 76.06 74.4185 76.148C74.1785 76.236 74.0065 76.352 73.9025 76.496C73.7985 76.632 73.7465 76.792 73.7465 76.976C73.7465 77.192 73.8345 77.368 74.0105 77.504C74.1865 77.632 74.4185 77.736 74.7065 77.816C74.9945 77.896 75.3105 77.976 75.6545 78.056C76.0065 78.136 76.3545 78.228 76.6985 78.332C77.0505 78.436 77.3705 78.576 77.6585 78.752C77.9465 78.928 78.1785 79.16 78.3545 79.448C78.5385 79.736 78.6305 80.1 78.6305 80.54C78.6305 81.012 78.4985 81.444 78.2345 81.836C77.9705 82.228 77.5745 82.544 77.0465 82.784C76.5265 83.024 75.8665 83.144 75.0665 83.144ZM84.0389 83.144C83.3749 83.144 82.7589 83.036 82.1909 82.82C81.6309 82.604 81.1429 82.3 80.7269 81.908C80.3189 81.516 79.9989 81.056 79.7669 80.528C79.5429 80 79.4309 79.424 79.4309 78.8C79.4309 78.176 79.5429 77.6 79.7669 77.072C79.9989 76.544 80.3229 76.084 80.7389 75.692C81.1549 75.3 81.6429 74.996 82.2029 74.78C82.7629 74.564 83.3709 74.456 84.0269 74.456C84.6909 74.456 85.2989 74.564 85.8509 74.78C86.4109 74.996 86.8949 75.3 87.3029 75.692C87.7189 76.084 88.0429 76.544 88.2749 77.072C88.5069 77.592 88.6229 78.168 88.6229 78.8C88.6229 79.424 88.5069 80.004 88.2749 80.54C88.0429 81.068 87.7189 81.528 87.3029 81.92C86.8949 82.304 86.4109 82.604 85.8509 82.82C85.2989 83.036 84.6949 83.144 84.0389 83.144ZM84.0269 81.488C84.4029 81.488 84.7469 81.424 85.0589 81.296C85.3789 81.168 85.6589 80.984 85.8989 80.744C86.1389 80.504 86.3229 80.22 86.4509 79.892C86.5869 79.564 86.6549 79.2 86.6549 78.8C86.6549 78.4 86.5869 78.036 86.4509 77.708C86.3229 77.38 86.1389 77.096 85.8989 76.856C85.6669 76.616 85.3909 76.432 85.0709 76.304C84.7509 76.176 84.4029 76.112 84.0269 76.112C83.6509 76.112 83.3029 76.176 82.9829 76.304C82.6709 76.432 82.3949 76.616 82.1549 76.856C81.9149 77.096 81.7269 77.38 81.5909 77.708C81.4629 78.036 81.3989 78.4 81.3989 78.8C81.3989 79.192 81.4629 79.556 81.5909 79.892C81.7269 80.22 81.9109 80.504 82.1429 80.744C82.3829 80.984 82.6629 81.168 82.9829 81.296C83.3029 81.424 83.6509 81.488 84.0269 81.488ZM93.8159 83.144C92.6239 83.144 91.6919 82.812 91.0199 82.148C90.3479 81.484 90.0119 80.536 90.0119 79.304V74.6H91.9559V79.232C91.9559 80.032 92.1199 80.608 92.4479 80.96C92.7759 81.312 93.2359 81.488 93.8279 81.488C94.4199 81.488 94.8799 81.312 95.2079 80.96C95.5359 80.608 95.6999 80.032 95.6999 79.232V74.6H97.6199V79.304C97.6199 80.536 97.2839 81.484 96.6119 82.148C95.9399 82.812 95.0079 83.144 93.8159 83.144ZM99.5409 83V74.6H103.177C103.929 74.6 104.577 74.724 105.121 74.972C105.665 75.212 106.085 75.56 106.381 76.016C106.677 76.472 106.825 77.016 106.825 77.648C106.825 78.272 106.677 78.812 106.381 79.268C106.085 79.716 105.665 80.06 105.121 80.3C104.577 80.54 103.929 80.66 103.177 80.66H100.621L101.485 79.808V83H99.5409ZM104.881 83L102.781 79.952H104.857L106.981 83H104.881ZM101.485 80.024L100.621 79.112H103.069C103.669 79.112 104.117 78.984 104.413 78.728C104.709 78.464 104.857 78.104 104.857 77.648C104.857 77.184 104.709 76.824 104.413 76.568C104.117 76.312 103.669 76.184 103.069 76.184H100.621L101.485 75.26V80.024ZM112.385 83.144C111.737 83.144 111.133 83.04 110.573 82.832C110.021 82.616 109.541 82.312 109.133 81.92C108.725 81.528 108.405 81.068 108.173 80.54C107.949 80.012 107.837 79.432 107.837 78.8C107.837 78.168 107.949 77.588 108.173 77.06C108.405 76.532 108.725 76.072 109.133 75.68C109.549 75.288 110.033 74.988 110.585 74.78C111.137 74.564 111.741 74.456 112.397 74.456C113.125 74.456 113.781 74.584 114.365 74.84C114.957 75.088 115.453 75.456 115.853 75.944L114.605 77.096C114.317 76.768 113.997 76.524 113.645 76.364C113.293 76.196 112.909 76.112 112.493 76.112C112.101 76.112 111.741 76.176 111.413 76.304C111.085 76.432 110.801 76.616 110.561 76.856C110.321 77.096 110.133 77.38 109.997 77.708C109.869 78.036 109.805 78.4 109.805 78.8C109.805 79.2 109.869 79.564 109.997 79.892C110.133 80.22 110.321 80.504 110.561 80.744C110.801 80.984 111.085 81.168 111.413 81.296C111.741 81.424 112.101 81.488 112.493 81.488C112.909 81.488 113.293 81.408 113.645 81.248C113.997 81.08 114.317 80.828 114.605 80.492L115.853 81.644C115.453 82.132 114.957 82.504 114.365 82.76C113.781 83.016 113.121 83.144 112.385 83.144ZM118.954 77.984H122.998V79.496H118.954V77.984ZM119.098 81.44H123.67V83H117.166V74.6H123.514V76.16H119.098V81.44ZM128.615 83V74.6H130.559V83H128.615ZM132.553 83V74.6H134.161L139.117 80.648H138.337V74.6H140.257V83H138.661L133.693 76.952H134.473V83H132.553ZM144.044 78.38H148.076V79.94H144.044V78.38ZM144.188 83H142.244V74.6H148.592V76.16H144.188V83ZM153.906 83.144C153.242 83.144 152.626 83.036 152.058 82.82C151.498 82.604 151.01 82.3 150.594 81.908C150.186 81.516 149.866 81.056 149.634 80.528C149.41 80 149.298 79.424 149.298 78.8C149.298 78.176 149.41 77.6 149.634 77.072C149.866 76.544 150.19 76.084 150.606 75.692C151.022 75.3 151.51 74.996 152.07 74.78C152.63 74.564 153.238 74.456 153.894 74.456C154.558 74.456 155.166 74.564 155.718 74.78C156.278 74.996 156.762 75.3 157.17 75.692C157.586 76.084 157.91 76.544 158.142 77.072C158.374 77.592 158.49 78.168 158.49 78.8C158.49 79.424 158.374 80.004 158.142 80.54C157.91 81.068 157.586 81.528 157.17 81.92C156.762 82.304 156.278 82.604 155.718 82.82C155.166 83.036 154.562 83.144 153.906 83.144ZM153.894 81.488C154.27 81.488 154.614 81.424 154.926 81.296C155.246 81.168 155.526 80.984 155.766 80.744C156.006 80.504 156.19 80.22 156.318 79.892C156.454 79.564 156.522 79.2 156.522 78.8C156.522 78.4 156.454 78.036 156.318 77.708C156.19 77.38 156.006 77.096 155.766 76.856C155.534 76.616 155.258 76.432 154.938 76.304C154.618 76.176 154.27 76.112 153.894 76.112C153.518 76.112 153.17 76.176 152.85 76.304C152.538 76.432 152.262 76.616 152.022 76.856C151.782 77.096 151.594 77.38 151.458 77.708C151.33 78.036 151.266 78.4 151.266 78.8C151.266 79.192 151.33 79.556 151.458 79.892C151.594 80.22 151.778 80.504 152.01 80.744C152.25 80.984 152.53 81.168 152.85 81.296C153.17 81.424 153.518 81.488 153.894 81.488ZM159.951 83V74.6H163.587C164.339 74.6 164.987 74.724 165.531 74.972C166.075 75.212 166.495 75.56 166.791 76.016C167.087 76.472 167.235 77.016 167.235 77.648C167.235 78.272 167.087 78.812 166.791 79.268C166.495 79.716 166.075 80.06 165.531 80.3C164.987 80.54 164.339 80.66 163.587 80.66H161.031L161.895 79.808V83H159.951ZM165.291 83L163.191 79.952H165.267L167.391 83H165.291ZM161.895 80.024L161.031 79.112H163.479C164.079 79.112 164.527 78.984 164.823 78.728C165.119 78.464 165.267 78.104 165.267 77.648C165.267 77.184 165.119 76.824 164.823 76.568C164.527 76.312 164.079 76.184 163.479 76.184H161.031L161.895 75.26V80.024ZM168.775 83V74.6H170.383L173.959 80.528H173.107L176.623 74.6H178.219L178.243 83H176.419L176.407 77.396H176.743L173.935 82.112H173.059L170.191 77.396H170.599V83H168.775ZM179.132 83L182.876 74.6H184.796L188.552 83H186.512L183.44 75.584H184.208L181.124 83H179.132ZM181.004 81.2L181.52 79.724H185.84L186.368 81.2H181.004ZM190.742 83V76.184H188.054V74.6H195.374V76.184H192.686V83H190.742ZM196.42 83V74.6H198.364V83H196.42ZM204.437 83.144C203.773 83.144 203.157 83.036 202.589 82.82C202.029 82.604 201.541 82.3 201.125 81.908C200.717 81.516 200.397 81.056 200.165 80.528C199.941 80 199.829 79.424 199.829 78.8C199.829 78.176 199.941 77.6 200.165 77.072C200.397 76.544 200.721 76.084 201.137 75.692C201.553 75.3 202.041 74.996 202.601 74.78C203.161 74.564 203.769 74.456 204.425 74.456C205.089 74.456 205.697 74.564 206.249 74.78C206.809 74.996 207.293 75.3 207.701 75.692C208.117 76.084 208.441 76.544 208.673 77.072C208.905 77.592 209.021 78.168 209.021 78.8C209.021 79.424 208.905 80.004 208.673 80.54C208.441 81.068 208.117 81.528 207.701 81.92C207.293 82.304 206.809 82.604 206.249 82.82C205.697 83.036 205.093 83.144 204.437 83.144ZM204.425 81.488C204.801 81.488 205.145 81.424 205.457 81.296C205.777 81.168 206.057 80.984 206.297 80.744C206.537 80.504 206.721 80.22 206.849 79.892C206.985 79.564 207.053 79.2 207.053 78.8C207.053 78.4 206.985 78.036 206.849 77.708C206.721 77.38 206.537 77.096 206.297 76.856C206.065 76.616 205.789 76.432 205.469 76.304C205.149 76.176 204.801 76.112 204.425 76.112C204.049 76.112 203.701 76.176 203.381 76.304C203.069 76.432 202.793 76.616 202.553 76.856C202.313 77.096 202.125 77.38 201.989 77.708C201.861 78.036 201.797 78.4 201.797 78.8C201.797 79.192 201.861 79.556 201.989 79.892C202.125 80.22 202.309 80.504 202.541 80.744C202.781 80.984 203.061 81.168 203.381 81.296C203.701 81.424 204.049 81.488 204.425 81.488ZM210.482 83V74.6H212.09L217.046 80.648H216.266V74.6H218.186V83H216.59L211.622 76.952H212.402V83H210.482ZM226.332 83.144C225.66 83.144 225.016 83.056 224.4 82.88C223.784 82.696 223.288 82.46 222.912 82.172L223.572 80.708C223.932 80.964 224.356 81.176 224.844 81.344C225.34 81.504 225.84 81.584 226.344 81.584C226.728 81.584 227.036 81.548 227.268 81.476C227.508 81.396 227.684 81.288 227.796 81.152C227.908 81.016 227.964 80.86 227.964 80.684C227.964 80.46 227.876 80.284 227.7 80.156C227.524 80.02 227.292 79.912 227.004 79.832C226.716 79.744 226.396 79.664 226.044 79.592C225.7 79.512 225.352 79.416 225 79.304C224.656 79.192 224.34 79.048 224.052 78.872C223.764 78.696 223.528 78.464 223.344 78.176C223.168 77.888 223.08 77.52 223.08 77.072C223.08 76.592 223.208 76.156 223.464 75.764C223.728 75.364 224.12 75.048 224.64 74.816C225.168 74.576 225.828 74.456 226.62 74.456C227.148 74.456 227.668 74.52 228.18 74.648C228.692 74.768 229.144 74.952 229.536 75.2L228.936 76.676C228.544 76.452 228.152 76.288 227.76 76.184C227.368 76.072 226.984 76.016 226.608 76.016C226.232 76.016 225.924 76.06 225.684 76.148C225.444 76.236 225.272 76.352 225.168 76.496C225.064 76.632 225.012 76.792 225.012 76.976C225.012 77.192 225.1 77.368 225.276 77.504C225.452 77.632 225.684 77.736 225.972 77.816C226.26 77.896 226.576 77.976 226.92 78.056C227.272 78.136 227.62 78.228 227.964 78.332C228.316 78.436 228.636 78.576 228.924 78.752C229.212 78.928 229.444 79.16 229.62 79.448C229.804 79.736 229.896 80.1 229.896 80.54C229.896 81.012 229.764 81.444 229.5 81.836C229.236 82.228 228.84 82.544 228.312 82.784C227.792 83.024 227.132 83.144 226.332 83.144ZM233.137 83V79.568L233.581 80.744L229.885 74.6H231.949L234.781 79.316H233.593L236.437 74.6H238.345L234.649 80.744L235.081 79.568V83H233.137ZM241.742 83.144C241.07 83.144 240.426 83.056 239.81 82.88C239.194 82.696 238.698 82.46 238.322 82.172L238.982 80.708C239.342 80.964 239.766 81.176 240.254 81.344C240.75 81.504 241.25 81.584 241.754 81.584C242.138 81.584 242.446 81.548 242.678 81.476C242.918 81.396 243.094 81.288 243.206 81.152C243.318 81.016 243.374 80.86 243.374 80.684C243.374 80.46 243.286 80.284 243.11 80.156C242.934 80.02 242.702 79.912 242.414 79.832C242.126 79.744 241.806 79.664 241.454 79.592C241.11 79.512 240.762 79.416 240.41 79.304C240.066 79.192 239.75 79.048 239.462 78.872C239.174 78.696 238.938 78.464 238.754 78.176C238.578 77.888 238.49 77.52 238.49 77.072C238.49 76.592 238.618 76.156 238.874 75.764C239.138 75.364 239.53 75.048 240.05 74.816C240.578 74.576 241.238 74.456 242.03 74.456C242.558 74.456 243.078 74.52 243.59 74.648C244.102 74.768 244.554 74.952 244.946 75.2L244.346 76.676C243.954 76.452 243.562 76.288 243.17 76.184C242.778 76.072 242.394 76.016 242.018 76.016C241.642 76.016 241.334 76.06 241.094 76.148C240.854 76.236 240.682 76.352 240.578 76.496C240.474 76.632 240.422 76.792 240.422 76.976C240.422 77.192 240.51 77.368 240.686 77.504C240.862 77.632 241.094 77.736 241.382 77.816C241.67 77.896 241.986 77.976 242.33 78.056C242.682 78.136 243.03 78.228 243.374 78.332C243.726 78.436 244.046 78.576 244.334 78.752C244.622 78.928 244.854 79.16 245.03 79.448C245.214 79.736 245.306 80.1 245.306 80.54C245.306 81.012 245.174 81.444 244.91 81.836C244.646 82.228 244.25 82.544 243.722 82.784C243.202 83.024 242.542 83.144 241.742 83.144ZM248.257 83V76.184H245.569V74.6H252.889V76.184H250.201V83H248.257ZM255.723 77.984H259.767V79.496H255.723V77.984ZM255.867 81.44H260.439V83H253.935V74.6H260.283V76.16H255.867V81.44ZM261.986 83V74.6H263.594L267.17 80.528H266.318L269.834 74.6H271.43L271.454 83H269.63L269.618 77.396H269.954L267.146 82.112H266.27L263.402 77.396H263.81V83H261.986Z" fill="#BEBEBE"/>
<path d="M6 61H85" stroke="white" stroke-width="4"/>
<path d="M148 61L274 61" stroke="white" stroke-width="4"/>
<path d="M148.618 3.06442H122C127.886 2.62828 141.134 1.65131 147.037 1.23261C154.416 0.709235 165 1 173.392 1.23261C179.978 1.41517 192.631 3.5878 199.22 4.89624C205.808 6.20467 213.188 9.34492 217.404 10.9151C221.621 12.4852 229.001 16.1488 233.217 19.8124C237.434 23.4761 237.894 26.5591 237.5 30.5C237 35.5 233.761 39.1084 232.427 40.7474C231 42.5 221.094 47.813 219.513 48.3364C218.248 48.7551 211.958 50.9533 208.971 52C210.464 50.7788 213.873 48.0223 215.56 46.7662C217.668 45.1961 222.495 40.3593 223.5 37.6072C225 33.5 225.221 30.6442 223.5 26.878C221.5 22.5 216.877 20.0741 210.552 16.1488C204.227 12.2235 196.848 10.6534 192.631 9.34492C188.414 8.03649 173.128 5.41961 170.229 4.89624C167.33 4.37286 154.416 3.06442 148.618 3.06442Z" fill="#4078B9"/>
<path d="M214.5 4C214.584 4.0124 214.668 4.02528 214.753 4.03862C216.942 4.3693 221.273 4.94021 223.5 5.5C226.396 6.22781 229.087 7.02959 231.5 8C233.913 8.97041 234.65 9 239 11.5C242.738 13.6483 243.629 13.5621 249.5 20.5C251.064 22.3484 252.346 25.9856 250.819 30.8698C249.371 35.5 240.522 40.6548 235.615 43C236.098 42.6765 237.305 41.884 238.27 41.3018C239.477 40.574 243.097 36.4497 244.544 33.7811C245.992 31.1124 245.992 29.4142 245.992 27.716C245.992 26.0178 245.751 22.6213 243.579 19.4675C241.407 16.3136 236.581 13.1598 234.65 11.7041C232.719 10.2485 229.413 8.47041 227 7.5C225.105 6.73812 219.225 4.74216 214.753 4.03862C214.665 4.02535 214.581 4.01248 214.5 4Z" fill="#4078B9" fill-opacity="0.5"/>
</svg>
