<svg width="50" height="45" viewBox="0 0 130 125" fill="none" xmlns="http://www.w3.org/2000/svg">
<circle cx="80" cy="76" r="49" fill="#4078B9" fill-opacity="0.21"/>
<path d="M41.91 56.635V59H28.6V43.875H13.31V59H0V56.635H4.73V20.555H13.31V36.615H28.6V20.555H37.18V56.635H41.91ZM46.6245 56.635V20.555H61.1995C67.1762 20.555 71.4295 21.5633 73.9595 23.58C76.5262 25.5967 77.8095 28.8417 77.8095 33.315C77.8095 39.475 75.3712 43.4533 70.4945 45.25L78.5245 56.635H83.6945V59H69.6695L61.1445 46.735H55.2045V59H41.2895V56.635H46.6245ZM61.4745 39.31C64.4079 39.31 66.4062 38.8333 67.4695 37.88C68.5329 36.9267 69.0645 35.4233 69.0645 33.37C69.0645 31.28 68.5145 29.85 67.4145 29.08C66.3145 28.31 64.3895 27.925 61.6395 27.925H55.2045V39.31H61.4745Z" fill="white"/>
<path d="M14.52 103.635V106H0V103.635H14.52ZM31.167 103.635V106H13.127V103.635H17.857V67.555H26.437V103.635H31.167ZM44.3188 103.635V106H29.7988V103.635H44.3188ZM78.0158 103.635V106H42.9258V103.635H50.4058C48.3891 102.608 46.5558 101.288 44.9058 99.675L50.0208 93.405C54.1641 97.035 57.9958 98.85 61.5158 98.85C63.0924 98.85 64.3208 98.52 65.2008 97.86C66.1174 97.1633 66.5758 96.2467 66.5758 95.11C66.5758 93.9367 66.0991 93.02 65.1458 92.36C64.1924 91.6633 62.3041 90.9667 59.4808 90.27C55.0074 89.2067 51.7258 87.8317 49.6358 86.145C47.5824 84.4217 46.5558 81.745 46.5558 78.115C46.5558 74.4483 47.8574 71.625 50.4608 69.645C53.1008 67.665 56.3824 66.675 60.3058 66.675C62.8724 66.675 65.4391 67.115 68.0058 67.995C70.5724 68.875 72.8091 70.1217 74.7158 71.735L70.3708 78.005C67.0341 75.475 63.5874 74.21 60.0308 74.21C58.6008 74.21 57.4641 74.5583 56.6208 75.255C55.8141 75.915 55.4108 76.8133 55.4108 77.95C55.4108 79.05 55.9058 79.93 56.8958 80.59C57.9224 81.25 60.2508 82.0383 63.8808 82.955C67.5474 83.835 70.3891 85.1733 72.4058 86.97C74.4224 88.7667 75.4308 91.26 75.4308 94.45C75.4308 98.41 73.9458 101.472 70.9758 103.635H78.0158Z" fill="white"/>
<path d="M0 68L64 68" stroke="white" stroke-width="2"/>
<path d="M26.6184 2.12512H0C5.88591 1.68898 19.1336 0.71201 25.0371 0.29331C32.4164 -0.230065 43 0.0606995 51.3919 0.29331C57.9781 0.475868 70.631 2.6485 77.2197 3.95694C83.8084 5.26537 91.1877 8.40562 95.4045 9.97575C99.6213 11.5459 107.001 15.2095 111.217 18.8731C115.434 22.5368 115.894 25.6198 115.5 29.5607C115 34.5607 111.761 38.1691 110.427 39.8081C109 41.5607 99.0942 46.8737 97.5129 47.3971C96.2478 47.8158 89.9578 50.014 86.9709 51.0607C88.4644 49.8395 91.8729 47.083 93.5597 45.8269C95.668 44.2568 100.495 39.42 101.5 36.6679C103 32.5607 103.221 29.7049 101.5 25.9387C99.5 21.5607 94.8774 19.1348 88.5522 15.2095C82.2271 11.2842 74.8477 9.71406 70.631 8.40562C66.4142 7.09719 51.1284 4.48031 48.2293 3.95694C45.3303 3.43356 32.4164 2.12512 26.6184 2.12512Z" fill="#4078B9"/>
<path d="M92.5 3.0607C92.5838 3.0731 92.6681 3.08598 92.7529 3.09932C94.9423 3.42999 99.2726 4.00091 101.5 4.5607C104.396 5.28851 107.087 6.09029 109.5 7.0607C111.913 8.03111 112.65 8.0607 117 10.5607C120.738 12.709 121.629 12.6228 127.5 19.5607C129.064 21.4091 130.346 25.0463 128.819 29.9305C127.371 34.5607 118.522 39.7155 113.615 42.0607C114.098 41.7372 115.305 40.9447 116.27 40.3625C117.477 39.6347 121.097 35.5104 122.544 32.8418C123.992 30.1731 123.992 28.4749 123.992 26.7767C123.992 25.0785 123.751 21.682 121.579 18.5282C119.407 15.3743 114.581 12.2205 112.65 10.7648C110.719 9.30922 107.413 7.53111 105 6.5607C103.105 5.79882 97.2245 3.80286 92.7529 3.09932C92.6651 3.08605 92.5807 3.07318 92.5 3.0607Z" fill="#4078B9" fill-opacity="0.5"/>
</svg>
