<svg width="536" height="398" viewBox="0 0 536 398" fill="none" xmlns="http://www.w3.org/2000/svg">
<g clip-path="url(#clip0_1_2)">
<ellipse cx="109.286" cy="390.294" rx="35.824" ry="6.79954" fill="#D4D4D4"/>
<ellipse cx="449.387" cy="390.294" rx="121.983" ry="6.79954" fill="#D4D4D4"/>
<ellipse cx="399.052" cy="149.59" rx="116.995" ry="116.952" fill="#403F7B"/>
<path d="M256.483 142.379H67.6756L32.5785 181.534V142.379H0V0H256.483V142.379Z" fill="#403F7B"/>
<path d="M214.427 41.8242H42.0565V49.5364H214.427V41.8242Z" fill="white"/>
<path d="M214.427 67.3338H42.0565V75.046H214.427V67.3338Z" fill="white"/>
<path d="M214.427 92.8434H42.0565V100.556H214.427V92.8434Z" fill="white"/>
<path d="M34.9171 209.426C39.6755 209.426 43.533 205.57 43.533 200.813C43.533 196.057 39.6755 192.2 34.9171 192.2C30.1587 192.2 26.3012 196.057 26.3012 200.813C26.3012 205.57 30.1587 209.426 34.9171 209.426Z" fill="#403F7B"/>
<path d="M56.2301 206.706C59.7363 206.706 62.5787 203.865 62.5787 200.36C62.5787 196.855 59.7363 194.014 56.2301 194.014C52.7239 194.014 49.8816 196.855 49.8816 200.36C49.8816 203.865 52.7239 206.706 56.2301 206.706Z" fill="#403F7B"/>
<path d="M73.0085 204.893C75.2625 204.893 77.0897 203.066 77.0897 200.813C77.0897 198.56 75.2625 196.733 73.0085 196.733C70.7545 196.733 68.9272 198.56 68.9272 200.813C68.9272 203.066 70.7545 204.893 73.0085 204.893Z" fill="#403F7B"/>
<path d="M452.739 380.648H445.476L442.021 352.591H452.74L452.739 380.648Z" fill="#9F616A"/>
<path d="M454.591 387.7L431.172 387.699V387.402C431.172 384.981 432.133 382.659 433.842 380.947C435.552 379.235 437.87 378.273 440.288 378.273L454.592 378.274L454.591 387.7Z" fill="#2F2E41"/>
<path d="M381.951 380.072L375.065 377.76L380.693 350.058L390.856 353.47L381.951 380.072Z" fill="#9F616A"/>
<path d="M381.469 387.347L359.265 379.891L359.359 379.61C360.128 377.315 361.775 375.419 363.939 374.34C366.104 373.261 368.607 373.087 370.899 373.856L384.461 378.41L381.469 387.347Z" fill="#2F2E41"/>
<path d="M390.904 235.645L375.176 368.898L390.602 370.201C390.602 370.201 414.867 239.189 422.348 254.708C429.828 270.228 438.994 367.293 438.994 367.293H454.304C454.304 367.293 458.23 215.845 442.2 208.353L390.904 235.645Z" fill="#2F2E41"/>
<path d="M431.671 125.864C433.155 117.423 427.527 109.375 419.098 107.888C410.67 106.4 402.634 112.038 401.149 120.479C399.665 128.92 405.293 136.968 413.722 138.456C422.15 139.943 430.186 134.305 431.671 125.864Z" fill="#9F616A"/>
<path d="M407.201 144.402L426.971 146.007C426.971 146.007 442.734 146.275 449.146 150.556C455.558 154.837 443.001 181.327 443.001 181.327C443.001 181.327 439.737 191.83 442.2 196.579C450.192 211.989 449.007 223.855 449.007 223.855C449.007 223.855 432.582 227.618 404.262 235.11C404.262 235.11 386.629 242.067 387.164 238.321C387.698 234.575 393.041 191.763 393.041 191.763V147.345L407.201 144.402Z" fill="white"/>
<path d="M441.786 121.49C440.995 117.07 439.223 110.801 435.276 106.048C435.4 106.048 435.524 106.054 435.648 106.05C437.005 106.01 438.549 105.582 439.109 104.344C439.29 103.848 439.335 103.313 439.24 102.794C439.145 102.274 438.913 101.79 438.568 101.391C437.868 100.602 437.031 99.9473 436.098 99.458C437.05 100.037 438.396 100.575 439.156 99.7592C439.351 99.5133 439.472 99.2168 439.505 98.9044C439.538 98.592 439.482 98.2767 439.342 97.9954C439.054 97.4372 438.649 96.9479 438.155 96.5606C436.554 95.1429 434.803 93.9054 432.933 92.8704C431.485 92.0692 429.581 91.4259 428.281 92.4507C426.957 93.4948 427.17 95.5278 427.51 97.1808C426.768 96.7466 425.935 96.4947 425.077 96.4456C424.649 96.4334 424.229 96.5695 423.889 96.831C423.55 97.0925 423.31 97.4635 423.212 97.8813C423.199 98.2109 423.272 98.5382 423.423 98.8314C423.574 99.1246 423.798 99.3738 424.074 99.5548C418.965 98.7133 412.436 99.6681 404.09 103.536C404.09 103.536 395.998 106.237 395.587 116.906C395.545 118.613 395.734 120.317 396.149 121.972C396.605 123.906 398.227 133.395 396.281 137.229L406.027 140.707L406.138 134.86C398.564 123.91 402.306 119.892 405.255 113.306C405.26 113.294 405.268 113.284 405.278 113.276C405.289 113.268 405.301 113.264 405.314 113.263C405.327 113.262 405.34 113.264 405.351 113.27C405.363 113.276 405.372 113.285 405.379 113.297C405.924 114.233 408.013 117.444 415.2 117.444L412.422 114.662C412.422 114.662 424.643 119.669 429.086 119.669C429.086 119.669 432.419 121.894 429.086 125.232C425.754 128.57 418.459 133.483 422.348 139.602C426.236 145.722 425.901 147.893 425.901 147.893L434.789 142.886C434.789 142.886 440.217 132.129 441.18 128.962C441.971 126.555 442.179 123.993 441.786 121.49Z" fill="#2F2E41"/>
<path d="M334.995 242.092H511.798V340.24H489.34V367.23L465.147 340.24H334.995V242.092Z" fill="#323238"/>
<path d="M482.807 270.923H363.986V276.239H482.807V270.923Z" fill="white"/>
<path d="M482.807 288.508H363.986V293.824H482.807V288.508Z" fill="white"/>
<path d="M482.807 306.092H363.986V311.409H482.807V306.092Z" fill="white"/>
<path d="M451.083 179.204L440.713 181.729L440.634 202.749L428.971 243.067C428.037 243.807 427.323 244.788 426.907 245.905C426.491 247.022 426.389 248.232 426.611 249.403C426.832 250.574 427.37 251.662 428.166 252.548C428.962 253.435 429.984 254.086 431.124 254.432C432.263 254.777 433.475 254.804 434.628 254.508C435.781 254.213 436.831 253.606 437.664 252.755C438.498 251.904 439.082 250.841 439.355 249.68C439.627 248.52 439.577 247.307 439.21 246.173L453.154 204.434L451.083 179.204Z" fill="#9F616A"/>
<path d="M382.063 178.762L394.504 182.322L394.583 203.342L406.246 243.661C407.18 244.4 407.893 245.381 408.31 246.498C408.726 247.615 408.828 248.825 408.606 249.996C408.384 251.167 407.847 252.255 407.051 253.142C406.255 254.028 405.232 254.68 404.093 255.025C402.954 255.371 401.742 255.397 400.589 255.102C399.436 254.806 398.386 254.2 397.553 253.349C396.719 252.498 396.134 251.434 395.862 250.274C395.589 249.113 395.639 247.9 396.007 246.766L382.063 205.028V178.762Z" fill="#9F616A"/>
<path d="M435.521 148.416L438.091 147.576C439.534 147.105 441.103 147.214 442.467 147.88C442.467 147.88 449.948 148.416 451.016 153.767C452.085 159.119 454.684 205.894 454.684 205.894L438.839 200.844L435.521 148.416Z" fill="white"/>
<path d="M399.453 148.416L394.905 148.186L393.464 147.465C393.464 147.465 385.026 148.416 383.958 153.767C382.889 159.119 379.78 207.336 379.78 207.336L395.625 203.008L399.453 148.416Z" fill="white"/>
<path d="M138.124 340.834L145.634 334.272C145.313 329.559 144.727 324.868 143.878 320.22L139.733 321.977L143.579 318.617C142.472 312.881 141.377 309.153 141.377 309.153C141.377 309.153 126.223 322.63 117.743 339.071L121.463 351.327L115.781 343.223C114.936 345.179 114.215 347.187 113.622 349.234C107.709 369.891 109.652 388.572 117.962 390.958C126.272 393.344 137.801 378.531 143.714 357.873C145.44 351.256 146.142 344.413 145.797 337.583L138.124 340.834Z" fill="#A8E095"/>
<path d="M93.8888 352.344L88.1618 347.341C88.4068 343.748 88.8539 340.172 89.5011 336.629L92.6616 337.968L89.7294 335.406C90.5732 331.034 91.4084 328.191 91.4084 328.191C91.4084 328.191 102.963 338.466 109.429 351L106.593 360.343L110.925 354.165C111.57 355.656 112.12 357.186 112.572 358.747C117.081 374.495 115.599 388.736 109.263 390.555C102.926 392.374 94.1346 381.082 89.6261 365.333C88.3105 360.289 87.7749 355.072 88.038 349.865L93.8888 352.344Z" fill="#A8E095"/>
<path d="M158.012 356.897L167.828 355.168C169.986 350.967 171.905 346.647 173.577 342.229L169.123 341.587L174.148 340.702C176.162 335.219 177.148 331.46 177.148 331.46C177.148 331.46 157.22 335.152 141.475 344.837L138.335 357.254L137.653 347.375C135.92 348.612 134.267 349.957 132.703 351.402C116.979 366.025 109.001 383.023 114.884 389.367C120.766 395.712 138.281 389 154.004 374.377C158.896 369.606 163.029 364.112 166.259 358.086L158.012 356.897Z" fill="#B0FC96"/>
<path d="M74.4555 364.539L66.9674 363.239C65.3215 360.081 63.8573 356.834 62.5819 353.513L65.9801 353.03L62.1462 352.365C60.6104 348.243 59.8579 345.417 59.8579 345.417C59.8579 345.417 75.0599 348.193 87.0708 355.473L89.4666 364.808L89.9864 357.381C91.3084 358.311 92.5697 359.322 93.7631 360.409C105.758 371.402 111.843 384.18 107.356 388.949C102.869 393.718 89.5078 388.673 77.5133 377.68C73.7813 374.093 70.6285 369.963 68.1646 365.433L74.4555 364.539Z" fill="#B0FC96"/>
<path d="M535.359 390.747H139.402C139.232 390.747 139.069 390.604 138.949 390.349C138.829 390.094 138.761 389.748 138.761 389.387C138.761 389.027 138.829 388.681 138.949 388.426C139.069 388.171 139.232 388.027 139.402 388.027H535.359C535.529 388.027 535.692 388.171 535.812 388.426C535.933 388.681 536 389.027 536 389.387C536 389.748 535.933 390.094 535.812 390.349C535.692 390.604 535.529 390.747 535.359 390.747Z" fill="#D5D5D5"/>
</g>
<defs>
<clipPath id="clip0_1_2">
<rect width="536" height="398" fill="white"/>
</clipPath>
</defs>
</svg>
